<mxfile host="app.diagrams.net" modified="2024-03-14T16:58:25.809Z" agent="Mozilla/5.0 (Windows NT 10.0; Win64; x64) AppleWebKit/537.36 (KHTML, like Gecko) Chrome/122.0.0.0 Safari/537.36" etag="KrETDzY8ytAy7Vt03f9b" version="24.0.5" type="device">
  <diagram name="Страница — 1" id="pndvSQzrNUnPujKketo5">
    <mxGraphModel dx="2376" dy="1914" grid="1" gridSize="10" guides="1" tooltips="1" connect="1" arrows="1" fold="1" page="1" pageScale="1" pageWidth="827" pageHeight="1169" math="0" shadow="0">
      <root>
        <mxCell id="0" />
        <mxCell id="1" parent="0" />
        <mxCell id="Wt44uC0tgwkX4twTwvik-1" value="" style="rounded=0;whiteSpace=wrap;html=1;dashed=1;" parent="1" vertex="1">
          <mxGeometry x="-790" y="-1150" width="1460" height="530" as="geometry" />
        </mxCell>
        <mxCell id="Wt44uC0tgwkX4twTwvik-2" value="" style="rounded=0;whiteSpace=wrap;html=1;dashed=1;" parent="1" vertex="1">
          <mxGeometry x="-790" y="-620" width="1460" height="610" as="geometry" />
        </mxCell>
        <mxCell id="Wt44uC0tgwkX4twTwvik-3" value="" style="rounded=0;whiteSpace=wrap;html=1;dashed=1;" parent="1" vertex="1">
          <mxGeometry x="-790" y="-10" width="1460" height="380" as="geometry" />
        </mxCell>
        <mxCell id="Wt44uC0tgwkX4twTwvik-21" value="FoodSupplier.BusinessLayer" style="text;html=1;strokeColor=default;fillColor=none;align=center;verticalAlign=middle;whiteSpace=wrap;rounded=0;dashed=1;" parent="1" vertex="1">
          <mxGeometry x="-790" y="-620" width="170" height="30" as="geometry" />
        </mxCell>
        <mxCell id="Wt44uC0tgwkX4twTwvik-22" value="FoodSupplier.DataAccess" style="text;html=1;strokeColor=default;fillColor=none;align=center;verticalAlign=middle;whiteSpace=wrap;rounded=0;dashed=1;" parent="1" vertex="1">
          <mxGeometry x="-790" y="-10" width="170" height="30" as="geometry" />
        </mxCell>
        <mxCell id="Wt44uC0tgwkX4twTwvik-23" value="PricesRepository" style="swimlane;fontStyle=0;childLayout=stackLayout;horizontal=1;startSize=26;fillColor=none;horizontalStack=0;resizeParent=1;resizeParentMax=0;resizeLast=0;collapsible=1;marginBottom=0;whiteSpace=wrap;html=1;" parent="1" vertex="1">
          <mxGeometry x="-690.5" y="150" width="260.5" height="208" as="geometry" />
        </mxCell>
        <mxCell id="Wt44uC0tgwkX4twTwvik-24" value="&lt;div style=&quot;text-align: center;&quot;&gt;+ PricesRepository(DataContext)&lt;/div&gt;" style="text;strokeColor=none;fillColor=none;align=left;verticalAlign=top;spacingLeft=4;spacingRight=4;overflow=hidden;rotatable=0;points=[[0,0.5],[1,0.5]];portConstraint=eastwest;whiteSpace=wrap;html=1;" parent="Wt44uC0tgwkX4twTwvik-23" vertex="1">
          <mxGeometry y="26" width="260.5" height="26" as="geometry" />
        </mxCell>
        <mxCell id="Wt44uC0tgwkX4twTwvik-25" value="+ Create(PriceEntry) : PriceEntry;" style="text;strokeColor=none;fillColor=none;align=left;verticalAlign=top;spacingLeft=4;spacingRight=4;overflow=hidden;rotatable=0;points=[[0,0.5],[1,0.5]];portConstraint=eastwest;whiteSpace=wrap;html=1;" parent="Wt44uC0tgwkX4twTwvik-23" vertex="1">
          <mxGeometry y="52" width="260.5" height="26" as="geometry" />
        </mxCell>
        <mxCell id="Wt44uC0tgwkX4twTwvik-138" value="+ Get(PriceEntryId) : PriceEntry;" style="text;strokeColor=none;fillColor=none;align=left;verticalAlign=top;spacingLeft=4;spacingRight=4;overflow=hidden;rotatable=0;points=[[0,0.5],[1,0.5]];portConstraint=eastwest;whiteSpace=wrap;html=1;" parent="Wt44uC0tgwkX4twTwvik-23" vertex="1">
          <mxGeometry y="78" width="260.5" height="26" as="geometry" />
        </mxCell>
        <mxCell id="Wt44uC0tgwkX4twTwvik-139" value="+ GetLast(ProductId, ShopId) : PriceEntry;" style="text;strokeColor=none;fillColor=none;align=left;verticalAlign=top;spacingLeft=4;spacingRight=4;overflow=hidden;rotatable=0;points=[[0,0.5],[1,0.5]];portConstraint=eastwest;whiteSpace=wrap;html=1;" parent="Wt44uC0tgwkX4twTwvik-23" vertex="1">
          <mxGeometry y="104" width="260.5" height="26" as="geometry" />
        </mxCell>
        <mxCell id="_9qZ0XntUze8Te2UrPL8-1" value="+ GetCeap(ProductId&lt;span style=&quot;background-color: initial;&quot;&gt;) : PriceEntry;&lt;/span&gt;" style="text;strokeColor=none;fillColor=none;align=left;verticalAlign=top;spacingLeft=4;spacingRight=4;overflow=hidden;rotatable=0;points=[[0,0.5],[1,0.5]];portConstraint=eastwest;whiteSpace=wrap;html=1;" vertex="1" parent="Wt44uC0tgwkX4twTwvik-23">
          <mxGeometry y="130" width="260.5" height="26" as="geometry" />
        </mxCell>
        <mxCell id="Wt44uC0tgwkX4twTwvik-27" value="+ Update(PriceEntry): void" style="text;strokeColor=none;fillColor=none;align=left;verticalAlign=top;spacingLeft=4;spacingRight=4;overflow=hidden;rotatable=0;points=[[0,0.5],[1,0.5]];portConstraint=eastwest;whiteSpace=wrap;html=1;" parent="Wt44uC0tgwkX4twTwvik-23" vertex="1">
          <mxGeometry y="156" width="260.5" height="26" as="geometry" />
        </mxCell>
        <mxCell id="Wt44uC0tgwkX4twTwvik-28" value="+ Delete(GUID): void" style="text;strokeColor=none;fillColor=none;align=left;verticalAlign=top;spacingLeft=4;spacingRight=4;overflow=hidden;rotatable=0;points=[[0,0.5],[1,0.5]];portConstraint=eastwest;whiteSpace=wrap;html=1;" parent="Wt44uC0tgwkX4twTwvik-23" vertex="1">
          <mxGeometry y="182" width="260.5" height="26" as="geometry" />
        </mxCell>
        <mxCell id="Wt44uC0tgwkX4twTwvik-29" value="«interface»&lt;br&gt;&lt;b&gt;IPricesRepository&lt;/b&gt;" style="html=1;whiteSpace=wrap;" parent="1" vertex="1">
          <mxGeometry x="-693" y="40" width="220" height="50" as="geometry" />
        </mxCell>
        <mxCell id="Wt44uC0tgwkX4twTwvik-30" value="" style="endArrow=block;dashed=1;endFill=0;endSize=12;html=1;rounded=0;entryX=0.5;entryY=1;entryDx=0;entryDy=0;exitX=0.5;exitY=0;exitDx=0;exitDy=0;" parent="1" source="Wt44uC0tgwkX4twTwvik-23" target="Wt44uC0tgwkX4twTwvik-29" edge="1">
          <mxGeometry width="160" relative="1" as="geometry">
            <mxPoint x="-582.5" y="140" as="sourcePoint" />
            <mxPoint x="-780.5" y="69" as="targetPoint" />
          </mxGeometry>
        </mxCell>
        <mxCell id="Wt44uC0tgwkX4twTwvik-31" value="Shop" style="swimlane;fontStyle=0;childLayout=stackLayout;horizontal=1;startSize=26;fillColor=none;horizontalStack=0;resizeParent=1;resizeParentMax=0;resizeLast=0;collapsible=1;marginBottom=0;whiteSpace=wrap;html=1;" parent="1" vertex="1">
          <mxGeometry x="-200" y="150" width="140" height="130" as="geometry" />
        </mxCell>
        <mxCell id="Wt44uC0tgwkX4twTwvik-32" value="+ Id: GUID" style="text;strokeColor=none;fillColor=none;align=left;verticalAlign=top;spacingLeft=4;spacingRight=4;overflow=hidden;rotatable=0;points=[[0,0.5],[1,0.5]];portConstraint=eastwest;whiteSpace=wrap;html=1;" parent="Wt44uC0tgwkX4twTwvik-31" vertex="1">
          <mxGeometry y="26" width="140" height="26" as="geometry" />
        </mxCell>
        <mxCell id="Wt44uC0tgwkX4twTwvik-199" value="+ Name: string" style="text;strokeColor=none;fillColor=none;align=left;verticalAlign=top;spacingLeft=4;spacingRight=4;overflow=hidden;rotatable=0;points=[[0,0.5],[1,0.5]];portConstraint=eastwest;whiteSpace=wrap;html=1;" parent="Wt44uC0tgwkX4twTwvik-31" vertex="1">
          <mxGeometry y="52" width="140" height="26" as="geometry" />
        </mxCell>
        <mxCell id="Wt44uC0tgwkX4twTwvik-110" value="+ BaseUrl: string" style="text;strokeColor=none;fillColor=none;align=left;verticalAlign=top;spacingLeft=4;spacingRight=4;overflow=hidden;rotatable=0;points=[[0,0.5],[1,0.5]];portConstraint=eastwest;whiteSpace=wrap;html=1;" parent="Wt44uC0tgwkX4twTwvik-31" vertex="1">
          <mxGeometry y="78" width="140" height="26" as="geometry" />
        </mxCell>
        <mxCell id="Wt44uC0tgwkX4twTwvik-111" value="+ IsActive: bool" style="text;strokeColor=none;fillColor=none;align=left;verticalAlign=top;spacingLeft=4;spacingRight=4;overflow=hidden;rotatable=0;points=[[0,0.5],[1,0.5]];portConstraint=eastwest;whiteSpace=wrap;html=1;" parent="Wt44uC0tgwkX4twTwvik-31" vertex="1">
          <mxGeometry y="104" width="140" height="26" as="geometry" />
        </mxCell>
        <mxCell id="Wt44uC0tgwkX4twTwvik-39" value="FoodSupplier.WebAPI" style="text;html=1;strokeColor=default;fillColor=none;align=center;verticalAlign=middle;whiteSpace=wrap;rounded=0;dashed=1;" parent="1" vertex="1">
          <mxGeometry x="-790" y="-1150" width="170" height="30" as="geometry" />
        </mxCell>
        <mxCell id="Wt44uC0tgwkX4twTwvik-41" value="Use" style="endArrow=open;endSize=12;dashed=1;html=1;rounded=0;entryX=1;entryY=0;entryDx=0;entryDy=0;exitX=0;exitY=0;exitDx=0;exitDy=0;" parent="1" source="Wt44uC0tgwkX4twTwvik-154" target="Wt44uC0tgwkX4twTwvik-31" edge="1">
          <mxGeometry width="160" relative="1" as="geometry">
            <mxPoint x="-473" y="160" as="sourcePoint" />
            <mxPoint x="-430" y="77.5" as="targetPoint" />
          </mxGeometry>
        </mxCell>
        <mxCell id="Wt44uC0tgwkX4twTwvik-42" value="ShopsController" style="swimlane;fontStyle=0;childLayout=stackLayout;horizontal=1;startSize=26;fillColor=none;horizontalStack=0;resizeParent=1;resizeParentMax=0;resizeLast=0;collapsible=1;marginBottom=0;whiteSpace=wrap;html=1;" parent="1" vertex="1">
          <mxGeometry x="1.5" y="-940" width="293" height="170" as="geometry" />
        </mxCell>
        <mxCell id="Wt44uC0tgwkX4twTwvik-43" value="&lt;div style=&quot;text-align: center;&quot;&gt;+ ShopsController()&lt;/div&gt;&lt;b style=&quot;border-color: var(--border-color); text-align: center;&quot;&gt;&lt;br&gt;&lt;/b&gt;" style="text;strokeColor=none;fillColor=none;align=left;verticalAlign=top;spacingLeft=4;spacingRight=4;overflow=hidden;rotatable=0;points=[[0,0.5],[1,0.5]];portConstraint=eastwest;whiteSpace=wrap;html=1;" parent="Wt44uC0tgwkX4twTwvik-42" vertex="1">
          <mxGeometry y="26" width="293" height="24" as="geometry" />
        </mxCell>
        <mxCell id="Wt44uC0tgwkX4twTwvik-182" value="+ Get(ShopGetModel) : ActionResult&amp;lt;ShopModel&amp;gt;;" style="text;strokeColor=none;fillColor=none;align=left;verticalAlign=top;spacingLeft=4;spacingRight=4;overflow=hidden;rotatable=0;points=[[0,0.5],[1,0.5]];portConstraint=eastwest;whiteSpace=wrap;html=1;" parent="Wt44uC0tgwkX4twTwvik-42" vertex="1">
          <mxGeometry y="50" width="293" height="30" as="geometry" />
        </mxCell>
        <mxCell id="Wt44uC0tgwkX4twTwvik-44" value="+ Create(ShopCreateModel) : IActionResult;" style="text;strokeColor=none;fillColor=none;align=left;verticalAlign=top;spacingLeft=4;spacingRight=4;overflow=hidden;rotatable=0;points=[[0,0.5],[1,0.5]];portConstraint=eastwest;whiteSpace=wrap;html=1;" parent="Wt44uC0tgwkX4twTwvik-42" vertex="1">
          <mxGeometry y="80" width="293" height="30" as="geometry" />
        </mxCell>
        <mxCell id="Wt44uC0tgwkX4twTwvik-180" value="+ Update(ShopModel) : ActionResult" style="text;strokeColor=none;fillColor=none;align=left;verticalAlign=top;spacingLeft=4;spacingRight=4;overflow=hidden;rotatable=0;points=[[0,0.5],[1,0.5]];portConstraint=eastwest;whiteSpace=wrap;html=1;" parent="Wt44uC0tgwkX4twTwvik-42" vertex="1">
          <mxGeometry y="110" width="293" height="30" as="geometry" />
        </mxCell>
        <mxCell id="Wt44uC0tgwkX4twTwvik-181" value="+ Delete(ShopDeleteModel) : ActionResult" style="text;strokeColor=none;fillColor=none;align=left;verticalAlign=top;spacingLeft=4;spacingRight=4;overflow=hidden;rotatable=0;points=[[0,0.5],[1,0.5]];portConstraint=eastwest;whiteSpace=wrap;html=1;" parent="Wt44uC0tgwkX4twTwvik-42" vertex="1">
          <mxGeometry y="140" width="293" height="30" as="geometry" />
        </mxCell>
        <mxCell id="Wt44uC0tgwkX4twTwvik-67" value="Extends" style="endArrow=block;endSize=16;endFill=0;html=1;rounded=0;entryX=1;entryY=0.5;entryDx=0;entryDy=0;" parent="1" source="Wt44uC0tgwkX4twTwvik-42" target="Wt44uC0tgwkX4twTwvik-68" edge="1">
          <mxGeometry x="-0.5027" width="160" relative="1" as="geometry">
            <mxPoint x="137" y="-850" as="sourcePoint" />
            <mxPoint x="208.3924050632911" y="-991" as="targetPoint" />
            <Array as="points">
              <mxPoint x="148" y="-1075" />
            </Array>
            <mxPoint y="-1" as="offset" />
          </mxGeometry>
        </mxCell>
        <mxCell id="Wt44uC0tgwkX4twTwvik-68" value="ControllerBase" style="html=1;whiteSpace=wrap;" parent="1" vertex="1">
          <mxGeometry x="-171.25" y="-1100" width="216.25" height="50" as="geometry" />
        </mxCell>
        <mxCell id="Wt44uC0tgwkX4twTwvik-70" value="«interface»&lt;br&gt;&lt;b&gt;IShopsService&lt;/b&gt;" style="html=1;whiteSpace=wrap;" parent="1" vertex="1">
          <mxGeometry x="346.5" y="-1100" width="265" height="50" as="geometry" />
        </mxCell>
        <mxCell id="Wt44uC0tgwkX4twTwvik-73" value="Use" style="endArrow=open;endSize=12;dashed=1;html=1;rounded=0;entryX=0;entryY=0.5;entryDx=0;entryDy=0;exitX=1;exitY=0.5;exitDx=0;exitDy=0;" parent="1" source="Wt44uC0tgwkX4twTwvik-43" target="Wt44uC0tgwkX4twTwvik-70" edge="1">
          <mxGeometry width="160" relative="1" as="geometry">
            <mxPoint x="381.5" y="-730" as="sourcePoint" />
            <mxPoint x="541.5" y="-730" as="targetPoint" />
          </mxGeometry>
        </mxCell>
        <mxCell id="Wt44uC0tgwkX4twTwvik-75" value="ShopModel" style="swimlane;fontStyle=0;childLayout=stackLayout;horizontal=1;startSize=26;fillColor=none;horizontalStack=0;resizeParent=1;resizeParentMax=0;resizeLast=0;collapsible=1;marginBottom=0;whiteSpace=wrap;html=1;" parent="1" vertex="1">
          <mxGeometry x="444.5" y="-1020" width="133" height="130" as="geometry" />
        </mxCell>
        <mxCell id="Wt44uC0tgwkX4twTwvik-76" value="+ Id: GUID" style="text;strokeColor=none;fillColor=none;align=left;verticalAlign=top;spacingLeft=4;spacingRight=4;overflow=hidden;rotatable=0;points=[[0,0.5],[1,0.5]];portConstraint=eastwest;whiteSpace=wrap;html=1;" parent="Wt44uC0tgwkX4twTwvik-75" vertex="1">
          <mxGeometry y="26" width="133" height="26" as="geometry" />
        </mxCell>
        <mxCell id="Wt44uC0tgwkX4twTwvik-204" value="+ Name: string" style="text;strokeColor=none;fillColor=none;align=left;verticalAlign=top;spacingLeft=4;spacingRight=4;overflow=hidden;rotatable=0;points=[[0,0.5],[1,0.5]];portConstraint=eastwest;whiteSpace=wrap;html=1;" parent="Wt44uC0tgwkX4twTwvik-75" vertex="1">
          <mxGeometry y="52" width="133" height="26" as="geometry" />
        </mxCell>
        <mxCell id="Wt44uC0tgwkX4twTwvik-184" value="+ IsActive: bool" style="text;strokeColor=none;fillColor=none;align=left;verticalAlign=top;spacingLeft=4;spacingRight=4;overflow=hidden;rotatable=0;points=[[0,0.5],[1,0.5]];portConstraint=eastwest;whiteSpace=wrap;html=1;" parent="Wt44uC0tgwkX4twTwvik-75" vertex="1">
          <mxGeometry y="78" width="133" height="26" as="geometry" />
        </mxCell>
        <mxCell id="Wt44uC0tgwkX4twTwvik-183" value="+ BaseUrl: string" style="text;strokeColor=none;fillColor=none;align=left;verticalAlign=top;spacingLeft=4;spacingRight=4;overflow=hidden;rotatable=0;points=[[0,0.5],[1,0.5]];portConstraint=eastwest;whiteSpace=wrap;html=1;" parent="Wt44uC0tgwkX4twTwvik-75" vertex="1">
          <mxGeometry y="104" width="133" height="26" as="geometry" />
        </mxCell>
        <mxCell id="Wt44uC0tgwkX4twTwvik-77" value="Use" style="endArrow=open;endSize=12;dashed=1;html=1;rounded=0;entryX=0;entryY=0.5;entryDx=0;entryDy=0;exitX=1;exitY=0.5;exitDx=0;exitDy=0;" parent="1" source="Wt44uC0tgwkX4twTwvik-182" target="Wt44uC0tgwkX4twTwvik-76" edge="1">
          <mxGeometry width="160" relative="1" as="geometry">
            <mxPoint x="381.5" y="-730" as="sourcePoint" />
            <mxPoint x="541.5" y="-730" as="targetPoint" />
          </mxGeometry>
        </mxCell>
        <mxCell id="Wt44uC0tgwkX4twTwvik-83" value="SupplierController" style="swimlane;fontStyle=0;childLayout=stackLayout;horizontal=1;startSize=26;fillColor=none;horizontalStack=0;resizeParent=1;resizeParentMax=0;resizeLast=0;collapsible=1;marginBottom=0;whiteSpace=wrap;html=1;" parent="1" vertex="1">
          <mxGeometry x="-450" y="-940" width="337.75" height="188" as="geometry" />
        </mxCell>
        <mxCell id="Wt44uC0tgwkX4twTwvik-84" value="&lt;div style=&quot;text-align: center;&quot;&gt;+ SupplierController()&lt;/div&gt;&lt;b style=&quot;border-color: var(--border-color); text-align: center;&quot;&gt;&lt;br&gt;&lt;/b&gt;" style="text;strokeColor=none;fillColor=none;align=left;verticalAlign=top;spacingLeft=4;spacingRight=4;overflow=hidden;rotatable=0;points=[[0,0.5],[1,0.5]];portConstraint=eastwest;whiteSpace=wrap;html=1;" parent="Wt44uC0tgwkX4twTwvik-83" vertex="1">
          <mxGeometry y="26" width="337.75" height="24" as="geometry" />
        </mxCell>
        <mxCell id="Wt44uC0tgwkX4twTwvik-86" value="+ Produce() : ActionResult;" style="text;strokeColor=none;fillColor=none;align=left;verticalAlign=top;spacingLeft=4;spacingRight=4;overflow=hidden;rotatable=0;points=[[0,0.5],[1,0.5]];portConstraint=eastwest;whiteSpace=wrap;html=1;" parent="Wt44uC0tgwkX4twTwvik-83" vertex="1">
          <mxGeometry y="50" width="337.75" height="30" as="geometry" />
        </mxCell>
        <mxCell id="Wt44uC0tgwkX4twTwvik-208" value="+ Produce(ShopProduceModel) : ActionResult;" style="text;strokeColor=none;fillColor=none;align=left;verticalAlign=top;spacingLeft=4;spacingRight=4;overflow=hidden;rotatable=0;points=[[0,0.5],[1,0.5]];portConstraint=eastwest;whiteSpace=wrap;html=1;" parent="Wt44uC0tgwkX4twTwvik-83" vertex="1">
          <mxGeometry y="80" width="337.75" height="30" as="geometry" />
        </mxCell>
        <mxCell id="Wt44uC0tgwkX4twTwvik-207" value="+ GetLast(ProductGetModel) : ActionResult&amp;lt;PriceModel&amp;gt;;" style="text;strokeColor=none;fillColor=none;align=left;verticalAlign=top;spacingLeft=4;spacingRight=4;overflow=hidden;rotatable=0;points=[[0,0.5],[1,0.5]];portConstraint=eastwest;whiteSpace=wrap;html=1;" parent="Wt44uC0tgwkX4twTwvik-83" vertex="1">
          <mxGeometry y="110" width="337.75" height="26" as="geometry" />
        </mxCell>
        <mxCell id="_9qZ0XntUze8Te2UrPL8-5" value="+ GetCheap(ProductGetModel) : ActionResult&amp;lt;PriceModel&amp;gt;;" style="text;strokeColor=none;fillColor=none;align=left;verticalAlign=top;spacingLeft=4;spacingRight=4;overflow=hidden;rotatable=0;points=[[0,0.5],[1,0.5]];portConstraint=eastwest;whiteSpace=wrap;html=1;" vertex="1" parent="Wt44uC0tgwkX4twTwvik-83">
          <mxGeometry y="136" width="337.75" height="26" as="geometry" />
        </mxCell>
        <mxCell id="Wt44uC0tgwkX4twTwvik-206" value="+ Get(PriceEntryGetModel) : ActionResult&amp;lt;PriceModel&amp;gt;;" style="text;strokeColor=none;fillColor=none;align=left;verticalAlign=top;spacingLeft=4;spacingRight=4;overflow=hidden;rotatable=0;points=[[0,0.5],[1,0.5]];portConstraint=eastwest;whiteSpace=wrap;html=1;" parent="Wt44uC0tgwkX4twTwvik-83" vertex="1">
          <mxGeometry y="162" width="337.75" height="26" as="geometry" />
        </mxCell>
        <mxCell id="Wt44uC0tgwkX4twTwvik-89" value="Extends" style="endArrow=block;endSize=16;endFill=0;html=1;rounded=0;entryX=0;entryY=0.5;entryDx=0;entryDy=0;exitX=0.5;exitY=0;exitDx=0;exitDy=0;" parent="1" source="Wt44uC0tgwkX4twTwvik-83" target="Wt44uC0tgwkX4twTwvik-68" edge="1">
          <mxGeometry x="-0.4608" width="160" relative="1" as="geometry">
            <mxPoint x="-363" y="-750" as="sourcePoint" />
            <mxPoint x="-203" y="-750" as="targetPoint" />
            <Array as="points">
              <mxPoint x="-281" y="-1075" />
            </Array>
            <mxPoint as="offset" />
          </mxGeometry>
        </mxCell>
        <mxCell id="Wt44uC0tgwkX4twTwvik-91" value="«interface»&lt;br&gt;&lt;b&gt;ISupplierService&lt;/b&gt;" style="html=1;whiteSpace=wrap;" parent="1" vertex="1">
          <mxGeometry x="-778" y="-1050" width="205" height="50" as="geometry" />
        </mxCell>
        <mxCell id="Wt44uC0tgwkX4twTwvik-93" value="Use" style="endArrow=open;endSize=12;dashed=1;html=1;rounded=0;entryX=0.5;entryY=1;entryDx=0;entryDy=0;exitX=0;exitY=0.118;exitDx=0;exitDy=0;exitPerimeter=0;" parent="1" source="Wt44uC0tgwkX4twTwvik-83" target="Wt44uC0tgwkX4twTwvik-91" edge="1">
          <mxGeometry x="0.5738" width="160" relative="1" as="geometry">
            <mxPoint x="-363" y="-790" as="sourcePoint" />
            <mxPoint x="-203" y="-790" as="targetPoint" />
            <Array as="points">
              <mxPoint x="-675" y="-920" />
            </Array>
            <mxPoint as="offset" />
          </mxGeometry>
        </mxCell>
        <mxCell id="Wt44uC0tgwkX4twTwvik-98" value="&lt;span style=&quot;text-align: left;&quot;&gt;ProduceModel&lt;/span&gt;" style="swimlane;fontStyle=0;childLayout=stackLayout;horizontal=1;startSize=26;fillColor=none;horizontalStack=0;resizeParent=1;resizeParentMax=0;resizeLast=0;collapsible=1;marginBottom=0;whiteSpace=wrap;html=1;" parent="1" vertex="1">
          <mxGeometry x="-778" y="-895" width="175" height="78" as="geometry" />
        </mxCell>
        <mxCell id="Wt44uC0tgwkX4twTwvik-209" value="+ ShopId: GUID" style="text;strokeColor=none;fillColor=none;align=left;verticalAlign=top;spacingLeft=4;spacingRight=4;overflow=hidden;rotatable=0;points=[[0,0.5],[1,0.5]];portConstraint=eastwest;whiteSpace=wrap;html=1;" parent="Wt44uC0tgwkX4twTwvik-98" vertex="1">
          <mxGeometry y="26" width="175" height="26" as="geometry" />
        </mxCell>
        <mxCell id="_9qZ0XntUze8Te2UrPL8-3" value="+ ProductId: GUID" style="text;strokeColor=none;fillColor=none;align=left;verticalAlign=top;spacingLeft=4;spacingRight=4;overflow=hidden;rotatable=0;points=[[0,0.5],[1,0.5]];portConstraint=eastwest;whiteSpace=wrap;html=1;" vertex="1" parent="Wt44uC0tgwkX4twTwvik-98">
          <mxGeometry y="52" width="175" height="26" as="geometry" />
        </mxCell>
        <mxCell id="Wt44uC0tgwkX4twTwvik-108" value="Use" style="endArrow=open;endSize=12;dashed=1;html=1;rounded=0;entryX=1;entryY=0.096;entryDx=0;entryDy=0;entryPerimeter=0;exitX=0;exitY=0.5;exitDx=0;exitDy=0;" parent="1" source="Wt44uC0tgwkX4twTwvik-208" target="Wt44uC0tgwkX4twTwvik-98" edge="1">
          <mxGeometry width="160" relative="1" as="geometry">
            <mxPoint x="-527.75" y="-875" as="sourcePoint" />
            <mxPoint x="-203" y="-670" as="targetPoint" />
          </mxGeometry>
        </mxCell>
        <mxCell id="Wt44uC0tgwkX4twTwvik-112" value="PriceEntry" style="swimlane;fontStyle=0;childLayout=stackLayout;horizontal=1;startSize=26;fillColor=none;horizontalStack=0;resizeParent=1;resizeParentMax=0;resizeLast=0;collapsible=1;marginBottom=0;whiteSpace=wrap;html=1;" parent="1" vertex="1">
          <mxGeometry x="-367.75" y="150" width="140" height="156" as="geometry">
            <mxRectangle x="-358" y="164" width="100" height="30" as="alternateBounds" />
          </mxGeometry>
        </mxCell>
        <mxCell id="Wt44uC0tgwkX4twTwvik-113" value="+ Id: GUID" style="text;strokeColor=none;fillColor=none;align=left;verticalAlign=top;spacingLeft=4;spacingRight=4;overflow=hidden;rotatable=0;points=[[0,0.5],[1,0.5]];portConstraint=eastwest;whiteSpace=wrap;html=1;" parent="Wt44uC0tgwkX4twTwvik-112" vertex="1">
          <mxGeometry y="26" width="140" height="26" as="geometry" />
        </mxCell>
        <mxCell id="Wt44uC0tgwkX4twTwvik-114" value="+ ProductId: GUID" style="text;strokeColor=none;fillColor=none;align=left;verticalAlign=top;spacingLeft=4;spacingRight=4;overflow=hidden;rotatable=0;points=[[0,0.5],[1,0.5]];portConstraint=eastwest;whiteSpace=wrap;html=1;" parent="Wt44uC0tgwkX4twTwvik-112" vertex="1">
          <mxGeometry y="52" width="140" height="26" as="geometry" />
        </mxCell>
        <mxCell id="Wt44uC0tgwkX4twTwvik-115" value="+ ShopID: GUID" style="text;strokeColor=none;fillColor=none;align=left;verticalAlign=top;spacingLeft=4;spacingRight=4;overflow=hidden;rotatable=0;points=[[0,0.5],[1,0.5]];portConstraint=eastwest;whiteSpace=wrap;html=1;" parent="Wt44uC0tgwkX4twTwvik-112" vertex="1">
          <mxGeometry y="78" width="140" height="26" as="geometry" />
        </mxCell>
        <mxCell id="Wt44uC0tgwkX4twTwvik-116" value="+ Date: DateTime&lt;div&gt;&lt;br&gt;&lt;/div&gt;" style="text;strokeColor=none;fillColor=none;align=left;verticalAlign=top;spacingLeft=4;spacingRight=4;overflow=hidden;rotatable=0;points=[[0,0.5],[1,0.5]];portConstraint=eastwest;whiteSpace=wrap;html=1;" parent="Wt44uC0tgwkX4twTwvik-112" vertex="1">
          <mxGeometry y="104" width="140" height="26" as="geometry" />
        </mxCell>
        <mxCell id="Wt44uC0tgwkX4twTwvik-117" value="+ Price: decimal&lt;div&gt;&lt;br&gt;&lt;/div&gt;" style="text;strokeColor=none;fillColor=none;align=left;verticalAlign=top;spacingLeft=4;spacingRight=4;overflow=hidden;rotatable=0;points=[[0,0.5],[1,0.5]];portConstraint=eastwest;whiteSpace=wrap;html=1;" parent="Wt44uC0tgwkX4twTwvik-112" vertex="1">
          <mxGeometry y="130" width="140" height="26" as="geometry" />
        </mxCell>
        <mxCell id="Wt44uC0tgwkX4twTwvik-118" value="Use" style="endArrow=open;endSize=12;dashed=1;html=1;rounded=0;exitX=1;exitY=0;exitDx=0;exitDy=0;entryX=0;entryY=0;entryDx=0;entryDy=0;" parent="1" source="Wt44uC0tgwkX4twTwvik-23" target="Wt44uC0tgwkX4twTwvik-112" edge="1">
          <mxGeometry width="160" relative="1" as="geometry">
            <mxPoint x="-463" y="170" as="sourcePoint" />
            <mxPoint x="-391" y="37" as="targetPoint" />
          </mxGeometry>
        </mxCell>
        <mxCell id="Wt44uC0tgwkX4twTwvik-130" value="PricesService" style="swimlane;fontStyle=0;childLayout=stackLayout;horizontal=1;startSize=26;fillColor=none;horizontalStack=0;resizeParent=1;resizeParentMax=0;resizeLast=0;collapsible=1;marginBottom=0;whiteSpace=wrap;html=1;" parent="1" vertex="1">
          <mxGeometry x="20" y="-460" width="250" height="164" as="geometry" />
        </mxCell>
        <mxCell id="Wt44uC0tgwkX4twTwvik-131" value="&lt;div style=&quot;&quot;&gt;+&amp;nbsp;PricesService(PricesRepository, IShopsRepository)&lt;/div&gt;" style="text;strokeColor=none;fillColor=none;align=left;verticalAlign=top;spacingLeft=4;spacingRight=4;overflow=hidden;rotatable=0;points=[[0,0.5],[1,0.5]];portConstraint=eastwest;whiteSpace=wrap;html=1;" parent="Wt44uC0tgwkX4twTwvik-130" vertex="1">
          <mxGeometry y="26" width="250" height="34" as="geometry" />
        </mxCell>
        <mxCell id="Wt44uC0tgwkX4twTwvik-132" value="+ CreatePriceEntry(PriceEntryDto) : GUID;" style="text;strokeColor=none;fillColor=none;align=left;verticalAlign=top;spacingLeft=4;spacingRight=4;overflow=hidden;rotatable=0;points=[[0,0.5],[1,0.5]];portConstraint=eastwest;whiteSpace=wrap;html=1;" parent="Wt44uC0tgwkX4twTwvik-130" vertex="1">
          <mxGeometry y="60" width="250" height="26" as="geometry" />
        </mxCell>
        <mxCell id="Wt44uC0tgwkX4twTwvik-146" value="+ Get(PriceEntryId) : PriceEntryDto;" style="text;strokeColor=none;fillColor=none;align=left;verticalAlign=top;spacingLeft=4;spacingRight=4;overflow=hidden;rotatable=0;points=[[0,0.5],[1,0.5]];portConstraint=eastwest;whiteSpace=wrap;html=1;" parent="Wt44uC0tgwkX4twTwvik-130" vertex="1">
          <mxGeometry y="86" width="250" height="26" as="geometry" />
        </mxCell>
        <mxCell id="Wt44uC0tgwkX4twTwvik-147" value="+ GetLast(ProductId) : PriceEntryDto;" style="text;strokeColor=none;fillColor=none;align=left;verticalAlign=top;spacingLeft=4;spacingRight=4;overflow=hidden;rotatable=0;points=[[0,0.5],[1,0.5]];portConstraint=eastwest;whiteSpace=wrap;html=1;" parent="Wt44uC0tgwkX4twTwvik-130" vertex="1">
          <mxGeometry y="112" width="250" height="26" as="geometry" />
        </mxCell>
        <mxCell id="_9qZ0XntUze8Te2UrPL8-4" value="+ GetCeap(ProductId&lt;span style=&quot;background-color: initial;&quot;&gt;) : PriceEntryDto;&lt;/span&gt;" style="text;strokeColor=none;fillColor=none;align=left;verticalAlign=top;spacingLeft=4;spacingRight=4;overflow=hidden;rotatable=0;points=[[0,0.5],[1,0.5]];portConstraint=eastwest;whiteSpace=wrap;html=1;" vertex="1" parent="Wt44uC0tgwkX4twTwvik-130">
          <mxGeometry y="138" width="250" height="26" as="geometry" />
        </mxCell>
        <mxCell id="Wt44uC0tgwkX4twTwvik-140" value="PriceEntryDto" style="swimlane;fontStyle=0;childLayout=stackLayout;horizontal=1;startSize=26;fillColor=none;horizontalStack=0;resizeParent=1;resizeParentMax=0;resizeLast=0;collapsible=1;marginBottom=0;whiteSpace=wrap;html=1;" parent="1" vertex="1">
          <mxGeometry x="170" y="-270" width="140" height="156" as="geometry">
            <mxRectangle x="-358" y="164" width="100" height="30" as="alternateBounds" />
          </mxGeometry>
        </mxCell>
        <mxCell id="Wt44uC0tgwkX4twTwvik-141" value="+ Id: GUID" style="text;strokeColor=none;fillColor=none;align=left;verticalAlign=top;spacingLeft=4;spacingRight=4;overflow=hidden;rotatable=0;points=[[0,0.5],[1,0.5]];portConstraint=eastwest;whiteSpace=wrap;html=1;" parent="Wt44uC0tgwkX4twTwvik-140" vertex="1">
          <mxGeometry y="26" width="140" height="26" as="geometry" />
        </mxCell>
        <mxCell id="Wt44uC0tgwkX4twTwvik-142" value="+ ProductId: GUID" style="text;strokeColor=none;fillColor=none;align=left;verticalAlign=top;spacingLeft=4;spacingRight=4;overflow=hidden;rotatable=0;points=[[0,0.5],[1,0.5]];portConstraint=eastwest;whiteSpace=wrap;html=1;" parent="Wt44uC0tgwkX4twTwvik-140" vertex="1">
          <mxGeometry y="52" width="140" height="26" as="geometry" />
        </mxCell>
        <mxCell id="Wt44uC0tgwkX4twTwvik-143" value="+ ShopID: GUID" style="text;strokeColor=none;fillColor=none;align=left;verticalAlign=top;spacingLeft=4;spacingRight=4;overflow=hidden;rotatable=0;points=[[0,0.5],[1,0.5]];portConstraint=eastwest;whiteSpace=wrap;html=1;" parent="Wt44uC0tgwkX4twTwvik-140" vertex="1">
          <mxGeometry y="78" width="140" height="26" as="geometry" />
        </mxCell>
        <mxCell id="Wt44uC0tgwkX4twTwvik-144" value="+ Date: DateTime&lt;div&gt;&lt;br&gt;&lt;/div&gt;" style="text;strokeColor=none;fillColor=none;align=left;verticalAlign=top;spacingLeft=4;spacingRight=4;overflow=hidden;rotatable=0;points=[[0,0.5],[1,0.5]];portConstraint=eastwest;whiteSpace=wrap;html=1;" parent="Wt44uC0tgwkX4twTwvik-140" vertex="1">
          <mxGeometry y="104" width="140" height="26" as="geometry" />
        </mxCell>
        <mxCell id="Wt44uC0tgwkX4twTwvik-145" value="+ Price: decimal&lt;div&gt;&lt;br&gt;&lt;/div&gt;" style="text;strokeColor=none;fillColor=none;align=left;verticalAlign=top;spacingLeft=4;spacingRight=4;overflow=hidden;rotatable=0;points=[[0,0.5],[1,0.5]];portConstraint=eastwest;whiteSpace=wrap;html=1;" parent="Wt44uC0tgwkX4twTwvik-140" vertex="1">
          <mxGeometry y="130" width="140" height="26" as="geometry" />
        </mxCell>
        <mxCell id="Wt44uC0tgwkX4twTwvik-149" value="Use" style="endArrow=open;endSize=12;dashed=1;html=1;rounded=0;entryX=1;entryY=0;entryDx=0;entryDy=0;exitX=1;exitY=0;exitDx=0;exitDy=0;" parent="1" source="Wt44uC0tgwkX4twTwvik-130" target="Wt44uC0tgwkX4twTwvik-140" edge="1">
          <mxGeometry width="160" relative="1" as="geometry">
            <mxPoint x="-117" y="-347" as="sourcePoint" />
            <mxPoint x="-13" y="-470" as="targetPoint" />
          </mxGeometry>
        </mxCell>
        <mxCell id="Wt44uC0tgwkX4twTwvik-150" value="«interface»&lt;br&gt;&lt;b&gt;ISupplierService&lt;/b&gt;" style="html=1;whiteSpace=wrap;" parent="1" vertex="1">
          <mxGeometry x="-555" y="-560" width="210" height="50" as="geometry" />
        </mxCell>
        <mxCell id="Wt44uC0tgwkX4twTwvik-152" value="«interface»&lt;br&gt;&lt;b&gt;IPricesRepository&lt;/b&gt;" style="html=1;whiteSpace=wrap;" parent="1" vertex="1">
          <mxGeometry x="45" y="-560" width="200" height="50" as="geometry" />
        </mxCell>
        <mxCell id="Wt44uC0tgwkX4twTwvik-153" value="Use" style="endArrow=open;endSize=12;dashed=1;html=1;rounded=0;entryX=0.5;entryY=1;entryDx=0;entryDy=0;exitX=0.5;exitY=0;exitDx=0;exitDy=0;" parent="1" source="Wt44uC0tgwkX4twTwvik-130" target="Wt44uC0tgwkX4twTwvik-152" edge="1">
          <mxGeometry width="160" relative="1" as="geometry">
            <mxPoint x="-297" y="-360" as="sourcePoint" />
            <mxPoint x="-157" y="-410" as="targetPoint" />
            <Array as="points" />
          </mxGeometry>
        </mxCell>
        <mxCell id="Wt44uC0tgwkX4twTwvik-154" value="ShopsRepository" style="swimlane;fontStyle=0;childLayout=stackLayout;horizontal=1;startSize=26;fillColor=none;horizontalStack=0;resizeParent=1;resizeParentMax=0;resizeLast=0;collapsible=1;marginBottom=0;whiteSpace=wrap;html=1;" parent="1" vertex="1">
          <mxGeometry x="30" y="150" width="215" height="156" as="geometry" />
        </mxCell>
        <mxCell id="Wt44uC0tgwkX4twTwvik-155" value="&lt;div style=&quot;text-align: center;&quot;&gt;+ ShopsRepository(DataContext)&lt;/div&gt;" style="text;strokeColor=none;fillColor=none;align=left;verticalAlign=top;spacingLeft=4;spacingRight=4;overflow=hidden;rotatable=0;points=[[0,0.5],[1,0.5]];portConstraint=eastwest;whiteSpace=wrap;html=1;" parent="Wt44uC0tgwkX4twTwvik-154" vertex="1">
          <mxGeometry y="26" width="215" height="26" as="geometry" />
        </mxCell>
        <mxCell id="Wt44uC0tgwkX4twTwvik-156" value="+ Create(Shop) : Shop;" style="text;strokeColor=none;fillColor=none;align=left;verticalAlign=top;spacingLeft=4;spacingRight=4;overflow=hidden;rotatable=0;points=[[0,0.5],[1,0.5]];portConstraint=eastwest;whiteSpace=wrap;html=1;" parent="Wt44uC0tgwkX4twTwvik-154" vertex="1">
          <mxGeometry y="52" width="215" height="26" as="geometry" />
        </mxCell>
        <mxCell id="Wt44uC0tgwkX4twTwvik-157" value="+ Get(ShopId) : Shop;" style="text;strokeColor=none;fillColor=none;align=left;verticalAlign=top;spacingLeft=4;spacingRight=4;overflow=hidden;rotatable=0;points=[[0,0.5],[1,0.5]];portConstraint=eastwest;whiteSpace=wrap;html=1;" parent="Wt44uC0tgwkX4twTwvik-154" vertex="1">
          <mxGeometry y="78" width="215" height="26" as="geometry" />
        </mxCell>
        <mxCell id="Wt44uC0tgwkX4twTwvik-160" value="+ Update(Shop): void" style="text;strokeColor=none;fillColor=none;align=left;verticalAlign=top;spacingLeft=4;spacingRight=4;overflow=hidden;rotatable=0;points=[[0,0.5],[1,0.5]];portConstraint=eastwest;whiteSpace=wrap;html=1;" parent="Wt44uC0tgwkX4twTwvik-154" vertex="1">
          <mxGeometry y="104" width="215" height="26" as="geometry" />
        </mxCell>
        <mxCell id="Wt44uC0tgwkX4twTwvik-161" value="+ Delete(GUID): void" style="text;strokeColor=none;fillColor=none;align=left;verticalAlign=top;spacingLeft=4;spacingRight=4;overflow=hidden;rotatable=0;points=[[0,0.5],[1,0.5]];portConstraint=eastwest;whiteSpace=wrap;html=1;" parent="Wt44uC0tgwkX4twTwvik-154" vertex="1">
          <mxGeometry y="130" width="215" height="26" as="geometry" />
        </mxCell>
        <mxCell id="Wt44uC0tgwkX4twTwvik-162" value="«interface»&lt;br&gt;&lt;b&gt;IShopsRepository&lt;/b&gt;" style="html=1;whiteSpace=wrap;" parent="1" vertex="1">
          <mxGeometry x="27.5" y="40" width="220" height="50" as="geometry" />
        </mxCell>
        <mxCell id="Wt44uC0tgwkX4twTwvik-163" value="" style="endArrow=block;dashed=1;endFill=0;endSize=12;html=1;rounded=0;entryX=0.5;entryY=1;entryDx=0;entryDy=0;exitX=0.5;exitY=0;exitDx=0;exitDy=0;" parent="1" source="Wt44uC0tgwkX4twTwvik-154" target="Wt44uC0tgwkX4twTwvik-162" edge="1">
          <mxGeometry width="160" relative="1" as="geometry">
            <mxPoint x="140.5" y="147" as="sourcePoint" />
            <mxPoint x="-57.5" y="76" as="targetPoint" />
          </mxGeometry>
        </mxCell>
        <mxCell id="Wt44uC0tgwkX4twTwvik-165" value="ShopsService" style="swimlane;fontStyle=0;childLayout=stackLayout;horizontal=1;startSize=26;fillColor=none;horizontalStack=0;resizeParent=1;resizeParentMax=0;resizeLast=0;collapsible=1;marginBottom=0;whiteSpace=wrap;html=1;" parent="1" vertex="1">
          <mxGeometry x="390" y="-460" width="250" height="164" as="geometry" />
        </mxCell>
        <mxCell id="Wt44uC0tgwkX4twTwvik-166" value="&lt;div style=&quot;&quot;&gt;+&amp;nbsp;ShopsService(ShopsRepository)&lt;/div&gt;" style="text;strokeColor=none;fillColor=none;align=left;verticalAlign=top;spacingLeft=4;spacingRight=4;overflow=hidden;rotatable=0;points=[[0,0.5],[1,0.5]];portConstraint=eastwest;whiteSpace=wrap;html=1;" parent="Wt44uC0tgwkX4twTwvik-165" vertex="1">
          <mxGeometry y="26" width="250" height="34" as="geometry" />
        </mxCell>
        <mxCell id="Wt44uC0tgwkX4twTwvik-167" value="+ CreateShop(ShopDto) : GUID;" style="text;strokeColor=none;fillColor=none;align=left;verticalAlign=top;spacingLeft=4;spacingRight=4;overflow=hidden;rotatable=0;points=[[0,0.5],[1,0.5]];portConstraint=eastwest;whiteSpace=wrap;html=1;" parent="Wt44uC0tgwkX4twTwvik-165" vertex="1">
          <mxGeometry y="60" width="250" height="26" as="geometry" />
        </mxCell>
        <mxCell id="Wt44uC0tgwkX4twTwvik-168" value="+ Get(ShopId) : ShopDto;" style="text;strokeColor=none;fillColor=none;align=left;verticalAlign=top;spacingLeft=4;spacingRight=4;overflow=hidden;rotatable=0;points=[[0,0.5],[1,0.5]];portConstraint=eastwest;whiteSpace=wrap;html=1;" parent="Wt44uC0tgwkX4twTwvik-165" vertex="1">
          <mxGeometry y="86" width="250" height="26" as="geometry" />
        </mxCell>
        <mxCell id="Wt44uC0tgwkX4twTwvik-173" value="+ UpdateShop(ShopDto) : void;" style="text;strokeColor=none;fillColor=none;align=left;verticalAlign=top;spacingLeft=4;spacingRight=4;overflow=hidden;rotatable=0;points=[[0,0.5],[1,0.5]];portConstraint=eastwest;whiteSpace=wrap;html=1;" parent="Wt44uC0tgwkX4twTwvik-165" vertex="1">
          <mxGeometry y="112" width="250" height="26" as="geometry" />
        </mxCell>
        <mxCell id="Wt44uC0tgwkX4twTwvik-174" value="+ DeleteShop(ShopId) : void;" style="text;strokeColor=none;fillColor=none;align=left;verticalAlign=top;spacingLeft=4;spacingRight=4;overflow=hidden;rotatable=0;points=[[0,0.5],[1,0.5]];portConstraint=eastwest;whiteSpace=wrap;html=1;" parent="Wt44uC0tgwkX4twTwvik-165" vertex="1">
          <mxGeometry y="138" width="250" height="26" as="geometry" />
        </mxCell>
        <mxCell id="Wt44uC0tgwkX4twTwvik-170" value="«interface»&lt;br&gt;&lt;b&gt;IShopsService&lt;/b&gt;" style="html=1;whiteSpace=wrap;" parent="1" vertex="1">
          <mxGeometry x="405" y="-560" width="220" height="50" as="geometry" />
        </mxCell>
        <mxCell id="Wt44uC0tgwkX4twTwvik-171" value="" style="endArrow=block;dashed=1;endFill=0;endSize=12;html=1;rounded=0;entryX=0.5;entryY=1;entryDx=0;entryDy=0;exitX=0.5;exitY=0;exitDx=0;exitDy=0;" parent="1" source="Wt44uC0tgwkX4twTwvik-165" target="Wt44uC0tgwkX4twTwvik-170" edge="1">
          <mxGeometry width="160" relative="1" as="geometry">
            <mxPoint x="516.5" y="-510" as="sourcePoint" />
            <mxPoint x="321" y="-584" as="targetPoint" />
          </mxGeometry>
        </mxCell>
        <mxCell id="Wt44uC0tgwkX4twTwvik-175" value="ShopDto" style="swimlane;fontStyle=0;childLayout=stackLayout;horizontal=1;startSize=26;fillColor=none;horizontalStack=0;resizeParent=1;resizeParentMax=0;resizeLast=0;collapsible=1;marginBottom=0;whiteSpace=wrap;html=1;" parent="1" vertex="1">
          <mxGeometry x="360" y="-270" width="140" height="130" as="geometry" />
        </mxCell>
        <mxCell id="Wt44uC0tgwkX4twTwvik-176" value="+ Id: GUID" style="text;strokeColor=none;fillColor=none;align=left;verticalAlign=top;spacingLeft=4;spacingRight=4;overflow=hidden;rotatable=0;points=[[0,0.5],[1,0.5]];portConstraint=eastwest;whiteSpace=wrap;html=1;" parent="Wt44uC0tgwkX4twTwvik-175" vertex="1">
          <mxGeometry y="26" width="140" height="26" as="geometry" />
        </mxCell>
        <mxCell id="Wt44uC0tgwkX4twTwvik-198" value="+ Name: string" style="text;strokeColor=none;fillColor=none;align=left;verticalAlign=top;spacingLeft=4;spacingRight=4;overflow=hidden;rotatable=0;points=[[0,0.5],[1,0.5]];portConstraint=eastwest;whiteSpace=wrap;html=1;" parent="Wt44uC0tgwkX4twTwvik-175" vertex="1">
          <mxGeometry y="52" width="140" height="26" as="geometry" />
        </mxCell>
        <mxCell id="Wt44uC0tgwkX4twTwvik-177" value="+ BaseUrl: string" style="text;strokeColor=none;fillColor=none;align=left;verticalAlign=top;spacingLeft=4;spacingRight=4;overflow=hidden;rotatable=0;points=[[0,0.5],[1,0.5]];portConstraint=eastwest;whiteSpace=wrap;html=1;" parent="Wt44uC0tgwkX4twTwvik-175" vertex="1">
          <mxGeometry y="78" width="140" height="26" as="geometry" />
        </mxCell>
        <mxCell id="Wt44uC0tgwkX4twTwvik-178" value="+ IsActive: bool" style="text;strokeColor=none;fillColor=none;align=left;verticalAlign=top;spacingLeft=4;spacingRight=4;overflow=hidden;rotatable=0;points=[[0,0.5],[1,0.5]];portConstraint=eastwest;whiteSpace=wrap;html=1;" parent="Wt44uC0tgwkX4twTwvik-175" vertex="1">
          <mxGeometry y="104" width="140" height="26" as="geometry" />
        </mxCell>
        <mxCell id="Wt44uC0tgwkX4twTwvik-179" value="Use" style="endArrow=open;endSize=12;dashed=1;html=1;rounded=0;entryX=0;entryY=0;entryDx=0;entryDy=0;exitX=0;exitY=0;exitDx=0;exitDy=0;" parent="1" source="Wt44uC0tgwkX4twTwvik-165" target="Wt44uC0tgwkX4twTwvik-175" edge="1">
          <mxGeometry width="160" relative="1" as="geometry">
            <mxPoint x="133" y="-75" as="sourcePoint" />
            <mxPoint x="626" y="-210" as="targetPoint" />
          </mxGeometry>
        </mxCell>
        <mxCell id="Wt44uC0tgwkX4twTwvik-185" value="ShopGetModel" style="swimlane;fontStyle=0;childLayout=stackLayout;horizontal=1;startSize=26;fillColor=none;horizontalStack=0;resizeParent=1;resizeParentMax=0;resizeLast=0;collapsible=1;marginBottom=0;whiteSpace=wrap;html=1;" parent="1" vertex="1">
          <mxGeometry x="444.5" y="-880" width="133" height="78" as="geometry" />
        </mxCell>
        <mxCell id="Wt44uC0tgwkX4twTwvik-186" value="+ Id: GUID" style="text;strokeColor=none;fillColor=none;align=left;verticalAlign=top;spacingLeft=4;spacingRight=4;overflow=hidden;rotatable=0;points=[[0,0.5],[1,0.5]];portConstraint=eastwest;whiteSpace=wrap;html=1;" parent="Wt44uC0tgwkX4twTwvik-185" vertex="1">
          <mxGeometry y="26" width="133" height="26" as="geometry" />
        </mxCell>
        <mxCell id="Wt44uC0tgwkX4twTwvik-187" value="+ IsActive: bool" style="text;strokeColor=none;fillColor=none;align=left;verticalAlign=top;spacingLeft=4;spacingRight=4;overflow=hidden;rotatable=0;points=[[0,0.5],[1,0.5]];portConstraint=eastwest;whiteSpace=wrap;html=1;" parent="Wt44uC0tgwkX4twTwvik-185" vertex="1">
          <mxGeometry y="52" width="133" height="26" as="geometry" />
        </mxCell>
        <mxCell id="Wt44uC0tgwkX4twTwvik-189" value="ShopCreateModel" style="swimlane;fontStyle=0;childLayout=stackLayout;horizontal=1;startSize=26;fillColor=none;horizontalStack=0;resizeParent=1;resizeParentMax=0;resizeLast=0;collapsible=1;marginBottom=0;whiteSpace=wrap;html=1;" parent="1" vertex="1">
          <mxGeometry x="444.5" y="-790" width="133" height="104" as="geometry">
            <mxRectangle x="260" y="-790" width="140" height="30" as="alternateBounds" />
          </mxGeometry>
        </mxCell>
        <mxCell id="Wt44uC0tgwkX4twTwvik-192" value="+ IsActive: bool" style="text;strokeColor=none;fillColor=none;align=left;verticalAlign=top;spacingLeft=4;spacingRight=4;overflow=hidden;rotatable=0;points=[[0,0.5],[1,0.5]];portConstraint=eastwest;whiteSpace=wrap;html=1;" parent="Wt44uC0tgwkX4twTwvik-189" vertex="1">
          <mxGeometry y="26" width="133" height="26" as="geometry" />
        </mxCell>
        <mxCell id="Wt44uC0tgwkX4twTwvik-205" value="+ Name: string" style="text;strokeColor=none;fillColor=none;align=left;verticalAlign=top;spacingLeft=4;spacingRight=4;overflow=hidden;rotatable=0;points=[[0,0.5],[1,0.5]];portConstraint=eastwest;whiteSpace=wrap;html=1;" parent="Wt44uC0tgwkX4twTwvik-189" vertex="1">
          <mxGeometry y="52" width="133" height="26" as="geometry" />
        </mxCell>
        <mxCell id="Wt44uC0tgwkX4twTwvik-193" value="+ BaseUrl: string" style="text;strokeColor=none;fillColor=none;align=left;verticalAlign=top;spacingLeft=4;spacingRight=4;overflow=hidden;rotatable=0;points=[[0,0.5],[1,0.5]];portConstraint=eastwest;whiteSpace=wrap;html=1;" parent="Wt44uC0tgwkX4twTwvik-189" vertex="1">
          <mxGeometry y="78" width="133" height="26" as="geometry" />
        </mxCell>
        <mxCell id="Wt44uC0tgwkX4twTwvik-194" value="ShopDeleteModel" style="swimlane;fontStyle=0;childLayout=stackLayout;horizontal=1;startSize=26;fillColor=none;horizontalStack=0;resizeParent=1;resizeParentMax=0;resizeLast=0;collapsible=1;marginBottom=0;whiteSpace=wrap;html=1;" parent="1" vertex="1">
          <mxGeometry x="294.5" y="-710" width="133" height="52" as="geometry" />
        </mxCell>
        <mxCell id="Wt44uC0tgwkX4twTwvik-197" value="+ Id: GUID" style="text;strokeColor=none;fillColor=none;align=left;verticalAlign=top;spacingLeft=4;spacingRight=4;overflow=hidden;rotatable=0;points=[[0,0.5],[1,0.5]];portConstraint=eastwest;whiteSpace=wrap;html=1;" parent="Wt44uC0tgwkX4twTwvik-194" vertex="1">
          <mxGeometry y="26" width="133" height="26" as="geometry" />
        </mxCell>
        <mxCell id="Wt44uC0tgwkX4twTwvik-200" value="Use" style="endArrow=open;endSize=12;dashed=1;html=1;rounded=0;entryX=0;entryY=0;entryDx=0;entryDy=0;exitX=1;exitY=0.5;exitDx=0;exitDy=0;" parent="1" source="Wt44uC0tgwkX4twTwvik-182" target="Wt44uC0tgwkX4twTwvik-185" edge="1">
          <mxGeometry width="160" relative="1" as="geometry">
            <mxPoint x="304.5" y="-835" as="sourcePoint" />
            <mxPoint x="454.5" y="-951" as="targetPoint" />
          </mxGeometry>
        </mxCell>
        <mxCell id="Wt44uC0tgwkX4twTwvik-201" value="Use" style="endArrow=open;endSize=12;dashed=1;html=1;rounded=0;entryX=0;entryY=0;entryDx=0;entryDy=0;exitX=1.003;exitY=-0.044;exitDx=0;exitDy=0;exitPerimeter=0;" parent="1" source="Wt44uC0tgwkX4twTwvik-44" target="Wt44uC0tgwkX4twTwvik-189" edge="1">
          <mxGeometry width="160" relative="1" as="geometry">
            <mxPoint x="304.5" y="-865" as="sourcePoint" />
            <mxPoint x="454.5" y="-870" as="targetPoint" />
          </mxGeometry>
        </mxCell>
        <mxCell id="Wt44uC0tgwkX4twTwvik-202" value="Use" style="endArrow=open;endSize=12;dashed=1;html=1;rounded=0;entryX=0;entryY=0;entryDx=0;entryDy=0;exitX=1.003;exitY=1.007;exitDx=0;exitDy=0;exitPerimeter=0;" parent="1" source="Wt44uC0tgwkX4twTwvik-181" target="Wt44uC0tgwkX4twTwvik-194" edge="1">
          <mxGeometry width="160" relative="1" as="geometry">
            <mxPoint x="247.5" y="-719.5" as="sourcePoint" />
            <mxPoint x="396.5" y="-648.5" as="targetPoint" />
          </mxGeometry>
        </mxCell>
        <mxCell id="Wt44uC0tgwkX4twTwvik-210" value="&lt;span style=&quot;text-align: left;&quot;&gt;ProductGetModel&lt;/span&gt;" style="swimlane;fontStyle=0;childLayout=stackLayout;horizontal=1;startSize=26;fillColor=none;horizontalStack=0;resizeParent=1;resizeParentMax=0;resizeLast=0;collapsible=1;marginBottom=0;whiteSpace=wrap;html=1;" parent="1" vertex="1">
          <mxGeometry x="-778" y="-770" width="175" height="52" as="geometry" />
        </mxCell>
        <mxCell id="Wt44uC0tgwkX4twTwvik-211" value="+ Id: GUID" style="text;strokeColor=none;fillColor=none;align=left;verticalAlign=top;spacingLeft=4;spacingRight=4;overflow=hidden;rotatable=0;points=[[0,0.5],[1,0.5]];portConstraint=eastwest;whiteSpace=wrap;html=1;" parent="Wt44uC0tgwkX4twTwvik-210" vertex="1">
          <mxGeometry y="26" width="175" height="26" as="geometry" />
        </mxCell>
        <mxCell id="Wt44uC0tgwkX4twTwvik-212" value="&lt;span style=&quot;text-align: left;&quot;&gt;PriceEntryGetModel&lt;/span&gt;" style="swimlane;fontStyle=0;childLayout=stackLayout;horizontal=1;startSize=26;fillColor=none;horizontalStack=0;resizeParent=1;resizeParentMax=0;resizeLast=0;collapsible=1;marginBottom=0;whiteSpace=wrap;html=1;" parent="1" vertex="1">
          <mxGeometry x="-778" y="-700" width="175" height="52" as="geometry" />
        </mxCell>
        <mxCell id="Wt44uC0tgwkX4twTwvik-213" value="+ Id: GUID" style="text;strokeColor=none;fillColor=none;align=left;verticalAlign=top;spacingLeft=4;spacingRight=4;overflow=hidden;rotatable=0;points=[[0,0.5],[1,0.5]];portConstraint=eastwest;whiteSpace=wrap;html=1;" parent="Wt44uC0tgwkX4twTwvik-212" vertex="1">
          <mxGeometry y="26" width="175" height="26" as="geometry" />
        </mxCell>
        <mxCell id="Wt44uC0tgwkX4twTwvik-214" value="Use" style="endArrow=open;endSize=12;dashed=1;html=1;rounded=0;entryX=1;entryY=0;entryDx=0;entryDy=0;exitX=0;exitY=0.5;exitDx=0;exitDy=0;" parent="1" source="Wt44uC0tgwkX4twTwvik-207" target="Wt44uC0tgwkX4twTwvik-210" edge="1">
          <mxGeometry width="160" relative="1" as="geometry">
            <mxPoint x="-497.75" y="-730.5" as="sourcePoint" />
            <mxPoint x="-573" y="-745.5" as="targetPoint" />
          </mxGeometry>
        </mxCell>
        <mxCell id="Wt44uC0tgwkX4twTwvik-215" value="Use" style="endArrow=open;endSize=12;dashed=1;html=1;rounded=0;entryX=1;entryY=0;entryDx=0;entryDy=0;exitX=0;exitY=0.5;exitDx=0;exitDy=0;" parent="1" source="Wt44uC0tgwkX4twTwvik-206" target="Wt44uC0tgwkX4twTwvik-212" edge="1">
          <mxGeometry width="160" relative="1" as="geometry">
            <mxPoint x="-518" y="-807" as="sourcePoint" />
            <mxPoint x="-593" y="-812" as="targetPoint" />
          </mxGeometry>
        </mxCell>
        <mxCell id="8FLHRo4n5JuJM6VA81LR-1" value="SupplierService" style="swimlane;fontStyle=0;childLayout=stackLayout;horizontal=1;startSize=26;fillColor=none;horizontalStack=0;resizeParent=1;resizeParentMax=0;resizeLast=0;collapsible=1;marginBottom=0;whiteSpace=wrap;html=1;" parent="1" vertex="1">
          <mxGeometry x="-580" y="-460" width="290" height="112" as="geometry" />
        </mxCell>
        <mxCell id="8FLHRo4n5JuJM6VA81LR-2" value="&lt;div style=&quot;&quot;&gt;+&amp;nbsp;SupplierService(&lt;span style=&quot;background-color: initial; text-align: center;&quot;&gt;IPriceCollector,&amp;nbsp;&lt;/span&gt;&lt;span style=&quot;background-color: initial;&quot;&gt;IPricesRepository&lt;/span&gt;&lt;span style=&quot;background-color: initial;&quot;&gt;)&lt;/span&gt;&lt;/div&gt;" style="text;strokeColor=none;fillColor=none;align=left;verticalAlign=top;spacingLeft=4;spacingRight=4;overflow=hidden;rotatable=0;points=[[0,0.5],[1,0.5]];portConstraint=eastwest;whiteSpace=wrap;html=1;" parent="8FLHRo4n5JuJM6VA81LR-1" vertex="1">
          <mxGeometry y="26" width="290" height="34" as="geometry" />
        </mxCell>
        <mxCell id="8FLHRo4n5JuJM6VA81LR-10" value="+ Produce() : void;" style="text;strokeColor=none;fillColor=none;align=left;verticalAlign=top;spacingLeft=4;spacingRight=4;overflow=hidden;rotatable=0;points=[[0,0.5],[1,0.5]];portConstraint=eastwest;whiteSpace=wrap;html=1;" parent="8FLHRo4n5JuJM6VA81LR-1" vertex="1">
          <mxGeometry y="60" width="290" height="26" as="geometry" />
        </mxCell>
        <mxCell id="8FLHRo4n5JuJM6VA81LR-4" value="+ Produce(ShopId, ProductId) : void;" style="text;strokeColor=none;fillColor=none;align=left;verticalAlign=top;spacingLeft=4;spacingRight=4;overflow=hidden;rotatable=0;points=[[0,0.5],[1,0.5]];portConstraint=eastwest;whiteSpace=wrap;html=1;" parent="8FLHRo4n5JuJM6VA81LR-1" vertex="1">
          <mxGeometry y="86" width="290" height="26" as="geometry" />
        </mxCell>
        <mxCell id="8FLHRo4n5JuJM6VA81LR-6" value="Use" style="endArrow=open;endSize=12;dashed=1;html=1;rounded=0;entryX=0.5;entryY=1;entryDx=0;entryDy=0;exitX=0.5;exitY=0;exitDx=0;exitDy=0;" parent="1" source="8FLHRo4n5JuJM6VA81LR-1" target="Wt44uC0tgwkX4twTwvik-150" edge="1">
          <mxGeometry width="160" relative="1" as="geometry">
            <mxPoint x="-298" y="-450" as="sourcePoint" />
            <mxPoint x="-298" y="-500" as="targetPoint" />
            <Array as="points" />
          </mxGeometry>
        </mxCell>
        <mxCell id="8FLHRo4n5JuJM6VA81LR-7" value="Use" style="endArrow=open;endSize=12;dashed=1;html=1;rounded=0;entryX=0;entryY=0.5;entryDx=0;entryDy=0;exitX=1;exitY=0;exitDx=0;exitDy=0;" parent="1" source="8FLHRo4n5JuJM6VA81LR-1" target="Wt44uC0tgwkX4twTwvik-152" edge="1">
          <mxGeometry width="160" relative="1" as="geometry">
            <mxPoint x="-173" y="-450" as="sourcePoint" />
            <mxPoint x="202" y="-525" as="targetPoint" />
          </mxGeometry>
        </mxCell>
        <mxCell id="8FLHRo4n5JuJM6VA81LR-11" value="ScheduleService" style="swimlane;fontStyle=0;childLayout=stackLayout;horizontal=1;startSize=26;fillColor=none;horizontalStack=0;resizeParent=1;resizeParentMax=0;resizeLast=0;collapsible=1;marginBottom=0;whiteSpace=wrap;html=1;" parent="1" vertex="1">
          <mxGeometry x="-760" y="-260" width="260" height="86" as="geometry" />
        </mxCell>
        <mxCell id="8FLHRo4n5JuJM6VA81LR-12" value="&lt;div style=&quot;&quot;&gt;+&amp;nbsp;&lt;span style=&quot;text-align: center;&quot;&gt;Schedule&lt;/span&gt;(&lt;span style=&quot;text-align: center;&quot;&gt;ISupplierService&lt;/span&gt;&lt;span style=&quot;background-color: initial;&quot;&gt;)&lt;/span&gt;&lt;/div&gt;" style="text;strokeColor=#FFCCCC;fillColor=#FFCCCC;align=left;verticalAlign=top;spacingLeft=4;spacingRight=4;overflow=hidden;rotatable=0;points=[[0,0.5],[1,0.5]];portConstraint=eastwest;whiteSpace=wrap;html=1;" parent="8FLHRo4n5JuJM6VA81LR-11" vertex="1">
          <mxGeometry y="26" width="260" height="34" as="geometry" />
        </mxCell>
        <mxCell id="8FLHRo4n5JuJM6VA81LR-13" value="+ Execute() : void;" style="text;strokeColor=none;fillColor=none;align=left;verticalAlign=top;spacingLeft=4;spacingRight=4;overflow=hidden;rotatable=0;points=[[0,0.5],[1,0.5]];portConstraint=eastwest;whiteSpace=wrap;html=1;" parent="8FLHRo4n5JuJM6VA81LR-11" vertex="1">
          <mxGeometry y="60" width="260" height="26" as="geometry" />
        </mxCell>
        <mxCell id="8FLHRo4n5JuJM6VA81LR-15" value="Use" style="endArrow=open;endSize=12;dashed=1;html=1;rounded=0;entryX=-0.029;entryY=0.6;entryDx=0;entryDy=0;exitX=0;exitY=0;exitDx=0;exitDy=0;entryPerimeter=0;" parent="1" source="8FLHRo4n5JuJM6VA81LR-11" target="Wt44uC0tgwkX4twTwvik-150" edge="1">
          <mxGeometry width="160" relative="1" as="geometry">
            <mxPoint x="-480" y="-450" as="sourcePoint" />
            <mxPoint x="-398" y="-525" as="targetPoint" />
          </mxGeometry>
        </mxCell>
        <mxCell id="8FLHRo4n5JuJM6VA81LR-16" value="PriceCollector" style="swimlane;fontStyle=0;childLayout=stackLayout;horizontal=1;startSize=26;fillColor=none;horizontalStack=0;resizeParent=1;resizeParentMax=0;resizeLast=0;collapsible=1;marginBottom=0;whiteSpace=wrap;html=1;" parent="1" vertex="1">
          <mxGeometry x="-281.5" y="-220" width="283" height="86" as="geometry" />
        </mxCell>
        <mxCell id="8FLHRo4n5JuJM6VA81LR-17" value="&lt;div style=&quot;&quot;&gt;+&amp;nbsp;PriceCollector()&lt;/div&gt;" style="text;strokeColor=none;fillColor=none;align=left;verticalAlign=top;spacingLeft=4;spacingRight=4;overflow=hidden;rotatable=0;points=[[0,0.5],[1,0.5]];portConstraint=eastwest;whiteSpace=wrap;html=1;" parent="8FLHRo4n5JuJM6VA81LR-16" vertex="1">
          <mxGeometry y="26" width="283" height="34" as="geometry" />
        </mxCell>
        <mxCell id="8FLHRo4n5JuJM6VA81LR-19" value="+ CollectPrice(ShopId, ProductId)&amp;nbsp;: PriceEntryDto;" style="text;strokeColor=none;fillColor=none;align=left;verticalAlign=top;spacingLeft=4;spacingRight=4;overflow=hidden;rotatable=0;points=[[0,0.5],[1,0.5]];portConstraint=eastwest;whiteSpace=wrap;html=1;" parent="8FLHRo4n5JuJM6VA81LR-16" vertex="1">
          <mxGeometry y="60" width="283" height="26" as="geometry" />
        </mxCell>
        <mxCell id="8FLHRo4n5JuJM6VA81LR-21" value="«interface»&lt;br&gt;&lt;b&gt;IPriceCollector&lt;/b&gt;" style="html=1;whiteSpace=wrap;" parent="1" vertex="1">
          <mxGeometry x="-240" y="-322" width="200" height="50" as="geometry" />
        </mxCell>
        <mxCell id="8FLHRo4n5JuJM6VA81LR-22" value="Use" style="endArrow=open;endSize=12;dashed=1;html=1;rounded=0;entryX=0.5;entryY=1;entryDx=0;entryDy=0;exitX=0.5;exitY=0;exitDx=0;exitDy=0;" parent="1" source="8FLHRo4n5JuJM6VA81LR-16" target="8FLHRo4n5JuJM6VA81LR-21" edge="1">
          <mxGeometry width="160" relative="1" as="geometry">
            <mxPoint x="-598.5" y="-184" as="sourcePoint" />
            <mxPoint x="-458.5" y="-234" as="targetPoint" />
            <Array as="points" />
          </mxGeometry>
        </mxCell>
        <mxCell id="8FLHRo4n5JuJM6VA81LR-24" value="Use" style="endArrow=open;endSize=12;dashed=1;html=1;rounded=0;entryX=0;entryY=0.5;entryDx=0;entryDy=0;exitX=1;exitY=0;exitDx=0;exitDy=0;" parent="1" source="8FLHRo4n5JuJM6VA81LR-1" target="8FLHRo4n5JuJM6VA81LR-21" edge="1">
          <mxGeometry width="160" relative="1" as="geometry">
            <mxPoint x="-423" y="-437" as="sourcePoint" />
            <mxPoint x="85" y="-525" as="targetPoint" />
          </mxGeometry>
        </mxCell>
      </root>
    </mxGraphModel>
  </diagram>
</mxfile>
